<?xml version="1.0" encoding="UTF-8" standalone="no"?>
<!-- Generator: Adobe Illustrator 16.0.3, SVG Export Plug-In . SVG Version: 6.00 Build 0)  -->

<svg
   version="1.1"
   id="Layer_1"
   x="0px"
   y="0px"
   width="1800"
   height="1300"
   viewBox="0 0 1800 1300"
   enable-background="new 0 0 1300 1300"
   xml:space="preserve"
   xmlns="http://www.w3.org/2000/svg"
   xmlns:svg="http://www.w3.org/2000/svg"
   xmlns:rdf="http://www.w3.org/1999/02/22-rdf-syntax-ns#"
   xmlns:cc="http://creativecommons.org/ns#"
   xmlns:dc="http://purl.org/dc/elements/1.1/"
   xmlns:sketch="http://www.bohemiancoding.com/sketch/ns"><defs
   id="defs25" />
<title
   id="title9">Vector 1</title>
<desc
   id="desc11">Created with Sketch.</desc>
<g
   id="Page-1"
   sketch:type="MSPage">
	<g
   id="solidity"
   transform="translate(402,118)"
   sketch:type="MSLayerGroup">
		<g
   id="Group"
   sketch:type="MSShapeGroup">
			
			
			
			
			
			<g
   id="g1071"
   transform="translate(120.43597,53.133515)"><path
     id="Shape"
     opacity="0.45"
     enable-background="new    "
     d="M 11.946387,52.065493 -118.75761,284.36749 h -261.226 l 130.614,-232.301997 H 11.946387" /><path
     id="Shape_1_"
     opacity="0.6"
     enable-background="new    "
     d="m -118.75761,284.36749 h 261.318 L 11.946387,52.065493 H -249.36961 Z" /><path
     id="Shape_2_"
     opacity="0.8"
     enable-background="new    "
     d="m -249.36961,516.57949 130.612,-232.212 -130.612,-232.301997 -130.614,232.301997 z" /><path
     id="Shape-3"
     opacity="0.45"
     enable-background="new    "
     d="M 657.9434,456.90205 428.59939,592.72949 202.37102,462.11649 431.63709,326.24405 657.9434,456.90205" /><path
     id="Shape_2_-4"
     opacity="0.8"
     enable-background="new    "
     d="m 430.1582,691.74377 130.61202,-232.212 -130.61202,-232.302 -130.614,232.302 z" /><path
     id="Shape-3-8"
     opacity="0.45"
     enable-background="new    "
     d="M 1153.5158,451.68761 924.17177,587.51505 697.9434,456.90205 927.20947,321.02961 l 226.30633,130.658" /><path
     id="Shape_2_-4-4"
     opacity="0.8"
     enable-background="new    "
     d="m 925.73058,686.52933 130.61202,-232.212 -130.61202,-232.302 -130.614,232.302 z" /><path
     id="Shape_3_"
     opacity="0.45"
     enable-background="new    "
     d="m -248.10461,865.03249 130.704,-232.303 h 261.318 L 13.212387,865.03249 H -248.10461" /><path
     id="Shape_4_"
     opacity="0.6"
     enable-background="new    "
     d="m -117.40161,632.73049 h -261.317 l 130.613,232.303 H 13.211387 Z" /><path
     id="Shape_5_"
     opacity="0.8"
     enable-background="new    "
     d="m 13.212387,400.51849 -130.613997,232.212 130.613997,232.303 130.704003,-232.303 z" /></g>
		</g>
	</g>
</g>
<metadata
   id="metadata1075"><rdf:RDF><cc:Work
       rdf:about=""><dc:title>Vector 1</dc:title></cc:Work></rdf:RDF></metadata></svg>
